:SAMPLES-PER-SECOND 30
:FULLY-SPECIFIED
:DEGREES
280
root  -1.63453 40.8493 -0.446805 -1.78049 -64.0519 2.95038
RightUpLeg  0.724682 -4.96766 -2.68923
RightLeg  2.42682 -39.309 0.860983
RightFoot  -1.47033 -0.274231 3.05979
RightToes  -3.13006e-008 1.75238e-005 3.56266e-009
Spine  3.39638 4.78071 6.1514
Spine1  9.64302 5.15154 -0.0696426
HEad  -0.962688 -18.3397 2.18474
LeftShoulder1  0.906329 -1.57667 -10.5669
LeftArm  -61.0695 -35.8259 -10.7987
LeftForeArm  141.891 -71.7949 -146.482
LeftHand  -0.937631 -1.4085 16.1479
RightShoulder  2.6531 7.02128 18.7313
RightArm  -50.2033 27.6314 26.9621
RightForeArm  -28.5587 69.4642 36.172
RightHand  -2.13581 4.63876 -24.6569
LeftUpLeg  -4.89799 -2.02313 0.254597
LeftLeg  0.665729 -7.61477 -0.0262534
LeftFoot  2.8343 0.48068 -4.00521
LeftToes  4.78685e-008 1.46778e-008 1.34523e-009
281
root  -1.95751 40.9008 -0.312717 -1.92388 -65.4781 2.88619
RightUpLeg  2.69769 -4.25793 -2.31719
RightLeg  -1.14986 -38.6429 2.52215
RightFoot  -0.689676 -0.275403 2.90003
RightToes  -3.13006e-008 1.75238e-005 3.56266e-009
Spine  1.82539 4.48726 5.19009
Spine1  8.6718 4.97783 -0.933893
HEad  -1.32601 -15.384 1.2207
LeftShoulder1  0.827243 -1.12963 -10.592
LeftArm  -56.4894 -33.1655 -12.738
LeftForeArm  141.667 -70.872 -148.103
LeftHand  -0.884003 -0.638813 17.0713
RightShoulder  2.69737 6.79039 19.8065
RightArm  -45.6256 22.213 30.8516
RightForeArm  -5.30426 74.3808 51.0029
RightHand  -2.15732 5.33907 -23.3177
LeftUpLeg  -3.60494 -1.5555 0.516909
LeftLeg  0.000372824 -6.71062 -0.0513701
LeftFoot  2.34935 0.49132 -4.21021
LeftToes  4.78685e-008 1.46778e-008 1.34523e-009
282
root  -2.29594 40.935 -0.169621 -2.11599 -67.1968 2.98581
RightUpLeg  4.3679 -3.67549 -2.06809
RightLeg  -4.13361 -37.5083 3.81843
RightFoot  -0.130612 -0.285845 2.90106
RightToes  -3.13006e-008 1.75238e-005 3.56266e-009
Spine  0.0850399 4.32813 4.1873
Spine1  7.97767 4.84002 -1.37132
HEad  -2.08907 -12.7046 -0.149682
LeftShoulder1  0.887284 -1.17616 -11.8109
LeftArm  -52.0038 -29.4249 -14.5281
LeftForeArm  143.428 -69.2241 -150.952
LeftHand  -0.822765 -0.521462 16.238
RightShoulder  2.6472 6.38124 20.4352
RightArm  -41.3173 16.0497 34.6498
RightForeArm  26.2548 77.62 77.9584
RightHand  -2.06243 5.84193 -21.3833
LeftUpLeg  -2.47247 -1.1065 0.731573
LeftLeg  -0.434636 -5.61343 -0.16311
LeftFoot  1.77169 0.46101 -4.10393
LeftToes  4.78685e-008 1.46778e-008 1.34523e-009
283
root  -2.60972 40.9507 -0.0412563 -2.40121 -69.3386 3.18752
RightUpLeg  5.26357 -3.36502 -1.99994
RightLeg  -5.30713 -35.7649 4.18046
RightFoot  -0.0875469 -0.284563 2.87775
RightToes  -3.13006e-008 1.75238e-005 3.56266e-009
Spine  -0.846743 4.16506 3.43011
Spine1  6.53547 4.7536 -1.97596
HEad  -3.83428 -10.6139 -1.21096
LeftShoulder1  0.984158 -1.37273 -13.1635
LeftArm  -48.0951 -23.9219 -17.0186
LeftForeArm  147.559 -66.9845 -154.363
LeftHand  -0.960395 -1.35273 16.6519
RightShoulder  2.66973 6.04123 21.7023
RightArm  -36.2465 9.42574 36.6697
RightForeArm  63.1233 77.2811 110.111
RightHand  -2.13213 6.5703 -20.7878
LeftUpLeg  -1.42646 -0.547332 0.974406
LeftLeg  -0.664445 -4.1583 -0.40206
LeftFoot  1.07055 0.432547 -4.04012
LeftToes  4.78685e-008 1.46778e-008 1.34523e-009
284
root  -2.85267 40.9475 0.0927474 -2.55649 -72.0077 3.22085
RightUpLeg  5.09936 -3.23777 -2.05718
RightLeg  -4.11281 -33.2534 3.30145
RightFoot  -0.579869 -0.298225 3.15305
RightToes  -3.13006e-008 1.75238e-005 3.56266e-009
Spine  -2.56548 4.04097 2.4514
Spine1  6.82581 4.51768 -1.5865
HEad  -6.82296 -7.72418 -2.70829
LeftShoulder1  1.10885 -1.50551 -15.3161
LeftArm  -45.4564 -17.3086 -19.0049
LeftForeArm  151.03 -63.9061 -157.951
LeftHand  -1.08064 -1.91408 17.2644
RightShoulder  2.87866 6.20142 23.5017
RightArm  -31.6214 4.3999 36.6704
RightForeArm  88.3216 74.6832 130.19
RightHand  -2.08925 7.03389 -19.6406
LeftUpLeg  -0.664856 -0.139887 1.15351
LeftLeg  -0.376628 -2.07531 -0.526376
LeftFoot  0.191572 0.398036 -3.94808
LeftToes  4.78685e-008 1.46778e-008 1.34523e-009
